# xmcd
#
# Track frame offsets: 
#        150
#        23721
#        43429
#        72631
#        97021
#        128575
#        149446
#        171624
#        194681
#        216959
#        240872
#
# Disc length: 3551 seconds
#
# Revision: 0
# Processed by: cddbd v1.5.2PL0 Copyright (c) Steve Scherf et al.
# Submitted via: ExactAudioCopy v0.95a5
#
DISCID=ae0ddd0b
DTITLE=FoxSteet AllStars - Welcome to Mighty Pleasin
DYEAR=2010
DGENRE=Blues
TTITLE0=Do Me OPn The Floor
TTITLE1=Somebody In the World For You
TTITLE2=Ride With Your Baby
TTITLE3=Angel Wings
TTITLE4=Standin' Alone
TTITLE5=Lost My Reflection
TTITLE6=Goin' Back to Memphis
TTITLE7=Baby Don't Fight It
TTITLE8=World Travels Fast
TTITLE9=Good Hand
TTITLE10=Til' My Daze Is Gone
EXTD=
EXTT0=
EXTT1=
EXTT2=
EXTT3=
EXTT4=
EXTT5=
EXTT6=
EXTT7=
EXTT8=
EXTT9=
EXTT10=
PLAYORDER=
